<svg width="245" height="120" viewBox="0 0 245 120" fill="none" xmlns="http://www.w3.org/2000/svg">
<mask id="mask0" mask-type="alpha" maskUnits="userSpaceOnUse" x="24" y="23" width="53" height="66">
<ellipse rx="30.5049" ry="28.2753" transform="matrix(-0.625514 0.780213 0.625514 0.780213 50.019 55.6362)" fill="#C4C4C4"/>
</mask>
<g mask="url(#mask0)">
<mask id="path-3-inside-1" fill="white">
<path d="M71.675 79.0488C69.3524 76.1517 67.546 72.6674 66.3591 68.7948C65.1722 64.9221 64.628 60.7371 64.7575 56.4785C64.887 52.2199 65.6877 47.9711 67.1139 43.9749C68.5401 39.9787 70.5639 36.3131 73.0696 33.1876L90.7563 55.2484L71.675 79.0488Z"/>
</mask>
<path d="M71.675 79.0488C69.3524 76.1517 67.546 72.6674 66.3591 68.7948C65.1722 64.9221 64.628 60.7371 64.7575 56.4785C64.887 52.2199 65.6877 47.9711 67.1139 43.9749C68.5401 39.9787 70.5639 36.3131 73.0696 33.1876L90.7563 55.2484L71.675 79.0488Z" stroke="#E3E3E3" stroke-width="4" mask="url(#path-3-inside-1)"/>
</g>
<mask id="mask1" mask-type="alpha" maskUnits="userSpaceOnUse" x="12" y="18" width="59" height="74">
<ellipse rx="34.0937" ry="31.6019" transform="matrix(-0.625514 0.780213 0.625514 0.780213 41.0937 54.9042)" fill="#C4C4C4"/>
</mask>
<g mask="url(#mask1)">
<mask id="path-5-inside-2" fill="white">
<path d="M65.1045 82.0535C62.5086 78.8156 60.4897 74.9213 59.1632 70.5931C57.8366 66.2649 57.2283 61.5875 57.3731 56.8278C57.5178 52.0682 58.4127 47.3197 60.0067 42.8533C61.6007 38.3869 63.8626 34.2901 66.6632 30.7969L86.4306 55.4531L65.1045 82.0535Z"/>
</mask>
<path d="M65.1045 82.0535C62.5086 78.8156 60.4897 74.9213 59.1632 70.5931C57.8366 66.2649 57.2283 61.5875 57.3731 56.8278C57.5178 52.0682 58.4127 47.3197 60.0067 42.8533C61.6007 38.3869 63.8626 34.2901 66.6632 30.7969L86.4306 55.4531L65.1045 82.0535Z" stroke="#E3E3E3" stroke-width="4" mask="url(#path-5-inside-2)"/>
</g>
<mask id="mask2" mask-type="alpha" maskUnits="userSpaceOnUse" x="159" y="22" width="59" height="73">
<ellipse rx="30.5471" ry="34.5442" transform="matrix(0.625514 -0.780213 -0.625514 -0.780213 188.716 58.7966)" fill="#C4C4C4"/>
</mask>
<g mask="url(#mask2)">
<mask id="path-7-inside-3" fill="white">
<path d="M162.576 29.7968C165.414 33.3362 167.729 37.4574 169.391 41.925C171.052 46.3927 172.027 51.1194 172.259 55.8352C172.491 60.5511 171.976 65.1637 170.744 69.4097C169.511 73.6557 167.586 77.4521 165.076 80.5819L143.469 53.6301L162.576 29.7968Z"/>
</mask>
<path d="M162.576 29.7968C165.414 33.3362 167.729 37.4574 169.391 41.925C171.052 46.3927 172.027 51.1194 172.259 55.8352C172.491 60.5511 171.976 65.1637 170.744 69.4097C169.511 73.6557 167.586 77.4521 165.076 80.5819L143.469 53.6301L162.576 29.7968Z" stroke="#E3E3E3" stroke-width="4" mask="url(#path-7-inside-3)"/>
</g>
<mask id="mask3" mask-type="alpha" maskUnits="userSpaceOnUse" x="166" y="20" width="65" height="82">
<ellipse rx="34.1409" ry="38.6082" transform="matrix(0.625514 -0.780213 -0.625514 -0.780213 198.701 60.8366)" fill="#C4C4C4"/>
</mask>
<g mask="url(#mask3)">
<mask id="path-9-inside-4" fill="white">
<path d="M169.614 27.3598C172.785 31.3155 175.373 35.9215 177.23 40.9148C179.087 45.9081 180.176 51.1909 180.436 56.4615C180.695 61.7321 180.12 66.8874 178.742 71.633C177.365 76.3786 175.213 80.6215 172.408 84.1195L148.258 53.9969L169.614 27.3598Z"/>
</mask>
<path d="M169.614 27.3598C172.785 31.3155 175.373 35.9215 177.23 40.9148C179.087 45.9081 180.176 51.1909 180.436 56.4615C180.695 61.7321 180.12 66.8874 178.742 71.633C177.365 76.3786 175.213 80.6215 172.408 84.1195L148.258 53.9969L169.614 27.3598Z" stroke="#E3E3E3" stroke-width="4" mask="url(#path-9-inside-4)"/>
</g>
<path fill-rule="evenodd" clip-rule="evenodd" d="M106.909 41.7288C107.373 42.0024 107.274 42.5578 107.058 43.1132C106.809 43.7681 106.478 44.2987 106.503 44.8707C106.536 45.6417 107.008 46.2054 107.713 46.6696C110.125 45.4593 109.139 41.8863 106.909 41.7288ZM131.091 41.7288C130.618 42.0024 130.726 42.5578 130.933 43.1132C131.182 43.7681 131.514 44.2987 131.489 44.8707C131.456 45.6417 130.983 46.2054 130.278 46.6696C127.874 45.4593 128.861 41.8863 131.091 41.7288ZM127.087 31.9881C126.714 31.5902 126.2 31.814 125.702 32.1373C125.122 32.5186 124.666 32.958 124.111 33.0575C123.356 33.1984 122.693 32.8585 122.096 32.2699C122.759 29.6586 126.457 29.841 127.087 31.9881ZM141.486 63.2413C141.113 62.8434 141.362 62.3377 141.719 61.8651C142.133 61.3097 142.597 60.8869 142.738 60.3315C142.921 59.5854 142.622 58.9056 142.075 58.2673C139.422 58.773 139.389 62.4786 141.486 63.2413ZM146.941 61.8817C147.124 61.5584 146.891 61.3014 146.601 61.0776C146.261 60.8206 145.913 60.6548 145.747 60.3398C145.532 59.917 145.623 59.4362 145.88 58.9222C147.629 58.6818 148.168 60.9615 146.941 61.8817ZM146.295 75.8752C146.046 75.3446 146.427 74.9633 146.9 74.6483C147.463 74.2752 148.027 74.0514 148.309 73.5789C148.69 72.9323 148.591 72.1696 148.234 71.3406C145.532 70.7852 144.462 74.3167 146.295 75.8752ZM124.79 19.8018C125.288 19.9262 125.354 20.4567 125.313 21.0122C125.271 21.6671 125.114 22.2391 125.296 22.753C125.536 23.4411 126.117 23.8225 126.879 24.0463C128.72 22.2805 126.855 19.321 124.79 19.8018ZM152.57 55.2332C152.098 55.142 151.841 55.5648 151.658 56.0539C151.434 56.6342 151.343 57.1813 150.987 57.5461C150.514 58.0352 149.868 58.1347 149.13 58.0269C148.251 55.8052 151.003 54.0228 152.57 55.2332ZM139.596 25.5882C139.19 25.3229 138.792 25.6297 138.444 26.011C138.021 26.467 137.731 26.9395 137.275 27.1384C136.653 27.4203 136.015 27.2711 135.377 26.8897C135.377 24.5105 138.593 23.8805 139.596 25.5882ZM153.615 66.6899C153.523 66.2257 153.043 66.1428 152.529 66.1511C151.923 66.1593 151.385 66.2754 150.92 66.0847C150.299 65.8277 149.967 65.2723 149.801 64.5594C151.509 62.9428 154.153 64.8081 153.615 66.6899ZM138.369 47.0841C138.112 47.4903 137.623 47.3908 137.142 47.1919C136.57 46.9598 136.106 46.653 135.601 46.6613C134.921 46.6696 134.407 47.0758 133.984 47.6893C134.995 49.8364 138.179 49.0571 138.369 47.0841ZM138.85 38.7195C138.941 38.1392 138.411 37.8491 137.806 37.6418C137.093 37.4014 136.421 37.3102 135.965 36.8957C135.344 36.3403 135.194 35.5611 135.294 34.6574C137.955 33.4886 140.251 36.7548 138.85 38.7195ZM152.661 43.2873C152.504 42.9972 152.164 43.0469 151.824 43.163C151.426 43.2956 151.086 43.4863 150.746 43.4614C150.274 43.4282 149.942 43.1215 149.685 42.6821C150.473 41.2397 152.62 41.9195 152.661 43.2873ZM144.678 46.7194C144.346 47.0344 144.529 47.4655 144.802 47.88C145.126 48.3691 145.49 48.7504 145.573 49.2229C145.689 49.8613 145.399 50.4084 144.902 50.9141C142.705 50.3587 142.871 47.2499 144.678 46.7194ZM119.41 19.263C120.397 19.9096 122.013 20.523 122.046 21.9158C122.063 22.3966 121.765 22.9354 121.624 23.0183C121.441 23.1261 120.819 23.0764 120.405 22.8111C119.278 22.0981 119.501 20.407 119.41 19.263ZM134.788 38.4211C133.511 38.9102 131.862 40.0045 130.527 39.1009C130.071 38.7859 129.764 38.1558 129.781 37.9569C129.806 37.7082 130.262 37.1693 130.792 36.9621C132.226 36.3901 133.661 37.733 134.788 38.4211ZM149.08 43.0801C147.928 42.3505 146.527 40.9495 145.043 41.5713C144.537 41.7868 144.106 42.3423 144.089 42.5412C144.065 42.7899 144.404 43.4117 144.877 43.7184C146.17 44.564 147.845 43.5277 149.08 43.0801ZM136.015 29.6586C136.206 30.6368 136.794 31.9632 135.974 32.8088C135.692 33.0989 135.194 33.2399 135.053 33.2067C134.879 33.1653 134.539 32.759 134.456 32.3611C134.233 31.2503 135.385 30.3881 136.015 29.6586ZM154.643 46.4541C153.532 46.6945 151.882 46.6862 151.36 47.9297C151.186 48.3525 151.26 48.9328 151.368 49.0654C151.492 49.2312 152.064 49.397 152.529 49.2975C153.789 49.0405 154.17 47.4489 154.643 46.4541ZM136.894 40.0459C136.313 40.8252 135.244 41.7454 135.609 42.8314C135.733 43.2044 136.106 43.536 136.247 43.5609C136.421 43.594 136.885 43.3785 137.126 43.0635C137.789 42.1847 137.142 40.9495 136.894 40.0459ZM148.002 33.3145C148.243 34.4834 148.956 36.0667 147.986 37.0781C147.654 37.4263 147.066 37.6004 146.9 37.5589C146.692 37.5009 146.286 37.0284 146.179 36.5476C145.888 35.2377 147.256 34.1932 148.002 33.3145ZM124.583 45.6665C125.893 45.6665 127.75 45.2686 128.629 46.5287C128.927 46.9598 128.985 47.6313 128.902 47.8053C128.794 48.0126 128.198 48.3442 127.65 48.3442C126.175 48.3691 125.354 46.6613 124.583 45.6665ZM129.085 28.7135C127.883 28.0835 126.365 26.8068 124.948 27.5529C124.459 27.8099 124.086 28.3985 124.077 28.5975C124.069 28.8379 124.467 29.4348 124.956 29.7C126.316 30.4296 127.891 29.2607 129.085 28.7135ZM150.34 44.3484C150.655 45.6748 151.526 47.4572 150.456 48.6592C150.091 49.0737 149.42 49.2893 149.229 49.2478C148.989 49.1898 148.508 48.6675 148.367 48.1204C147.986 46.6199 149.511 45.3764 150.34 44.3484ZM128.048 43.4282C127.427 42.334 126.896 40.5931 125.42 40.4604C124.915 40.4107 124.326 40.6843 124.227 40.8335C124.102 41.0159 124.111 41.6791 124.359 42.1267C125.047 43.3702 126.855 43.2541 128.048 43.4282ZM140.691 36.6553C141.602 37.9071 143.294 39.4076 142.688 41.1402C142.481 41.7371 141.876 42.2594 141.652 42.3008C141.379 42.3505 140.641 42.0024 140.259 41.4884C139.207 40.0708 140.268 38.0978 140.691 36.6553ZM141.321 47.1504C140.417 47.2168 139.149 47.5981 138.477 46.7691C138.245 46.4872 138.17 46.023 138.22 45.8986C138.278 45.7494 138.676 45.4842 139.057 45.451C140.077 45.3681 140.732 46.5038 141.321 47.1504ZM124.243 21.5842C124.616 22.6038 125.47 23.9302 124.732 24.983C124.484 25.3395 123.97 25.5799 123.812 25.5633C123.621 25.5468 123.19 25.1654 123.033 24.7509C122.594 23.5986 123.68 22.4712 124.243 21.5842ZM151.186 53.8902C149.801 53.9897 147.861 54.5783 146.833 53.3099C146.477 52.8705 146.361 52.1659 146.436 51.9752C146.527 51.7431 147.14 51.3452 147.712 51.2954C149.279 51.1545 150.282 52.8871 151.186 53.8902ZM152.015 62.4869C150.954 63.1169 149.652 64.3521 148.326 63.747C147.87 63.5397 147.497 63.0257 147.488 62.8434C147.472 62.6195 147.795 62.0641 148.234 61.7988C149.412 61.0776 150.904 62.0558 152.015 62.4869ZM127.617 31.6067C127.684 32.6596 127.443 34.1849 128.504 34.8315C128.869 35.0554 129.416 35.0637 129.549 34.989C129.715 34.8979 129.947 34.3922 129.93 33.9611C129.872 32.7673 128.455 32.187 127.617 31.6067ZM142.092 65.5293C143.003 64.9988 144.471 64.5262 144.57 63.291C144.603 62.8599 144.371 62.3708 144.239 62.2879C144.081 62.1802 143.526 62.1967 143.144 62.4123C142.108 62.9926 142.224 64.5179 142.092 65.5293ZM130.353 25.7126C129.441 25.4722 128.206 24.8421 127.36 25.5716C127.07 25.8203 126.904 26.2846 126.929 26.4172C126.962 26.583 127.327 26.9312 127.7 27.0307C128.736 27.3125 129.623 26.2763 130.353 25.7126ZM137.831 28.0752C136.919 27.8348 135.692 27.2048 134.838 27.9343C134.548 28.183 134.382 28.6472 134.407 28.7799C134.44 28.9457 134.805 29.2938 135.178 29.3933C136.222 29.6752 137.109 28.6306 137.831 28.0752ZM152.711 70.0888C152.52 68.9945 152.587 67.378 151.393 66.8308C150.978 66.6402 150.415 66.6899 150.282 66.7894C150.125 66.9054 149.934 67.4609 150.008 67.9085C150.216 69.152 151.758 69.5914 152.711 70.0888ZM146.203 54.172C145.548 54.3793 144.686 54.8767 144.048 54.3876C143.824 54.2135 143.692 53.8902 143.708 53.7907C143.725 53.6664 143.973 53.4094 144.247 53.3182C144.976 53.0778 145.656 53.799 146.203 54.172ZM151.6 73.3302C150.481 72.6255 148.666 71.9623 148.599 70.4038C148.583 69.865 148.889 69.2598 149.063 69.1603C149.262 69.036 149.959 69.0774 150.423 69.3676C151.691 70.1551 151.476 72.0618 151.6 73.3302ZM123.199 45.3598C123.63 44.4811 124.525 43.3619 123.961 42.3505C123.771 42.0024 123.331 41.7454 123.19 41.7454C123.016 41.7454 122.594 42.0438 122.411 42.4003C121.914 43.3951 122.784 44.5142 123.199 45.3598ZM131.961 21.5013C130.834 21.609 129.192 21.4184 128.546 22.5872C128.322 22.9852 128.33 23.5738 128.413 23.7147C128.521 23.8888 129.068 24.1209 129.532 24.0794C130.809 23.9634 131.373 22.4297 131.961 21.5013ZM155.314 62.7439C154.775 61.4423 154.41 59.4279 152.794 59.0797C152.238 58.9554 151.542 59.1792 151.409 59.3284C151.244 59.5191 151.161 60.2569 151.376 60.7957C151.973 62.2713 154.004 62.3874 155.314 62.7439ZM134.937 39.706C134.912 41.049 135.302 42.964 133.992 43.8427C133.536 44.1412 132.848 44.1909 132.674 44.0997C132.459 43.992 132.127 43.3702 132.135 42.8148C132.144 41.2977 133.901 40.4853 134.937 39.706ZM139.745 27.412C138.709 28.3239 136.943 29.2938 137.126 30.9104C137.192 31.4658 137.615 32.0378 137.797 32.1207C138.029 32.2119 138.734 32.0627 139.173 31.6896C140.359 30.67 139.82 28.7384 139.745 27.412ZM135.932 58.831C135.509 57.7119 135.244 55.9875 133.876 55.6477C133.404 55.5316 132.807 55.7057 132.691 55.83C132.542 55.9876 132.459 56.6093 132.633 57.0735C133.097 58.3419 134.821 58.4911 135.932 58.831ZM147.008 79.415C147.696 78.6109 148.939 77.6741 148.616 76.4555C148.508 76.041 148.118 75.6514 147.969 75.6099C147.787 75.5602 147.265 75.7591 146.974 76.0907C146.187 77.0026 146.8 78.4119 147.008 79.415ZM139.323 49.1483C139.298 50.5245 139.704 52.5058 138.344 53.4094C137.88 53.7244 137.167 53.7658 136.985 53.6746C136.761 53.5586 136.43 52.9203 136.43 52.3483C136.446 50.7897 138.253 49.9524 139.323 49.1483ZM127.228 39.7392C127.402 40.7174 127.866 41.1153 128.421 41.2977C129.574 41.6708 130.726 40.8832 131.746 41.2646C130.253 38.1807 128.214 38.5372 127.228 39.7392ZM144.239 39.1921C143.302 38.8439 142.995 38.3216 142.921 37.7413C142.755 36.5393 143.741 35.5528 143.542 34.4751C146.311 36.4895 145.598 38.4294 144.239 39.1921ZM133.992 26.8151C133.014 26.4752 132.674 25.9447 132.583 25.3395C132.384 24.096 133.379 23.0432 133.155 21.924C136.073 23.9634 135.385 25.9944 133.992 26.8151ZM141.064 57.7699C140.815 58.3668 140.475 58.5574 140.094 58.5906C139.314 58.6735 138.693 58.0103 137.988 58.1181C139.364 56.3772 140.599 56.8746 141.064 57.7699ZM145.656 76.9529C145.101 76.9612 144.844 77.1767 144.703 77.4669C144.396 78.0637 144.728 78.7601 144.429 79.2824C146.237 78.7435 146.22 77.5995 145.656 76.9529ZM142.05 44.1329C141.976 45.0033 142.266 45.4427 142.705 45.7246C143.592 46.3049 144.744 45.8986 145.524 46.4624C144.968 43.5111 143.161 43.3453 142.05 44.1329ZM132.003 55.714C132.301 56.2445 132.243 56.6093 132.052 56.916C131.654 57.5461 130.809 57.6207 130.477 58.201C129.972 56.1699 131.066 55.5399 132.003 55.714ZM146.195 68.9531C146.494 69.4836 146.436 69.8484 146.245 70.1551C145.847 70.7852 145.001 70.8598 144.67 71.4401C144.164 69.4007 145.267 68.7707 146.195 68.9531ZM131.779 30.0814C130.792 29.7995 130.436 29.2938 130.303 28.697C130.038 27.4783 130.966 26.3841 130.676 25.2981C133.686 27.1467 133.114 29.1944 131.779 30.0814ZM141.205 30.7114C140.574 30.2969 140.425 29.8658 140.467 29.4265C140.541 28.5146 141.428 27.9426 141.462 27.1219C143.169 29.0617 142.324 30.3798 141.205 30.7114ZM130.51 31.7477C129.947 31.9798 129.59 31.872 129.308 31.6399C128.736 31.1674 128.761 30.3135 128.231 29.9073C130.32 29.6669 130.809 30.8358 130.51 31.7477ZM123.273 21.9987C122.676 21.8577 122.453 21.5593 122.361 21.2111C122.179 20.4899 122.701 19.8184 122.511 19.1801C124.343 20.208 124.044 21.4349 123.273 21.9987ZM145.482 63.8216C146.12 64.2029 146.27 64.6257 146.245 65.0651C146.195 65.9687 145.341 66.5573 145.333 67.3697C143.592 65.5044 144.388 64.1863 145.482 63.8216ZM133.072 48.5514C132.376 49.1483 132.285 49.6955 132.401 50.2177C132.641 51.3037 133.81 51.8426 133.984 52.8291C135.717 50.2094 134.481 48.7753 133.072 48.5514ZM150.39 50.3587C150.299 51.4446 150.663 51.9918 151.202 52.34C152.305 53.0612 153.747 52.5555 154.709 53.2601C154.021 49.5877 151.774 49.3804 150.39 50.3587ZM127.427 49.1483C127.161 49.8364 126.78 50.0602 126.349 50.11C125.47 50.226 124.741 49.4965 123.953 49.6291C125.454 47.6064 126.871 48.1452 127.427 49.1483ZM148.135 59.4693C148.699 59.2041 149.072 59.2952 149.37 59.5191C149.984 59.975 149.992 60.8538 150.556 61.2351C148.433 61.5833 147.878 60.4144 148.135 59.4693ZM149.942 73.3468C150.514 73.8027 150.605 74.2338 150.531 74.6566C150.373 75.527 149.47 75.9913 149.362 76.7788C147.903 74.756 148.831 73.5706 149.942 73.3468ZM151.957 57.6787C152.122 56.8 152.537 56.4435 153.034 56.286C154.071 55.9544 155.107 56.6673 156.027 56.3357C154.667 59.1046 152.835 58.7647 151.957 57.6787ZM139.663 43.1464C139.024 43.1961 138.701 42.9806 138.502 42.6573C138.079 42.0024 138.386 41.1568 137.98 40.5848C140.143 41.0159 140.251 42.3423 139.663 43.1464ZM146.958 49.9607C146.377 49.6789 146.212 49.3224 146.195 48.9411C146.17 48.1535 146.867 47.5815 146.809 46.8769C148.467 48.3525 147.878 49.5545 146.958 49.9607ZM151.542 46.3214C152.272 46.4541 152.661 46.2385 152.935 45.8986C153.49 45.194 153.242 44.1909 153.772 43.5775C151.244 43.8179 150.962 45.3266 151.542 46.3214ZM121.45 33.3311C121.955 33.0409 122.312 33.0906 122.602 33.2813C123.207 33.6627 123.29 34.4751 123.845 34.7901C121.889 35.2792 121.284 34.2264 121.45 33.3311ZM132.658 35.3538C133.221 35.0305 133.619 35.0885 133.943 35.2958C134.614 35.7186 134.705 36.6305 135.327 36.9786C133.147 37.5258 132.467 36.3569 132.658 35.3538ZM148.251 37.7662C148.624 38.189 148.956 38.247 149.279 38.1724C149.942 38.0149 150.265 37.3019 150.871 37.1859C149.246 36.1414 148.375 36.904 148.251 37.7662ZM138.867 33.2482C139.522 32.8668 139.986 32.9414 140.359 33.1818C141.138 33.6709 141.246 34.7321 141.975 35.1383C139.439 35.7766 138.651 34.4087 138.867 33.2482ZM144.612 56.1948C144.778 55.3161 145.192 54.9596 145.698 54.8021C146.734 54.4705 147.77 55.1834 148.69 54.8435C147.323 57.6124 145.499 57.2808 144.612 56.1948ZM141.47 32.3943C142.009 33.5632 142.713 33.9114 143.476 33.9528C145.043 34.044 146.22 32.6761 147.621 32.8171C144.744 29.4596 142.315 30.5705 141.47 32.3943ZM146.709 40.0293C147.231 39.0014 147.87 38.7112 148.549 38.6947C149.95 38.6615 150.962 39.9216 152.222 39.8387C149.544 42.7568 147.405 41.6873 146.709 40.0293ZM124.533 37.7662C124.003 38.1227 123.621 38.0895 123.29 37.9154C122.61 37.5506 122.461 36.6802 121.831 36.3901C123.903 35.6937 124.641 36.7797 124.533 37.7662ZM142.697 52.3731C141.619 52.3731 141.105 51.9586 140.798 51.3949C140.177 50.2343 140.807 48.8582 140.193 47.8302C143.783 48.8416 143.791 51.0882 142.697 52.3731ZM125.487 37.4677C126.49 37.1859 126.863 36.6719 126.996 36.0667C127.269 34.8232 126.332 33.7041 126.631 32.6015C123.563 34.4751 124.135 36.5559 125.487 37.4677ZM147.696 65.2226C146.726 65.6454 146.427 66.2091 146.377 66.8308C146.27 68.1158 147.364 69.1106 147.215 70.2629C150.033 67.9666 149.171 65.9521 147.696 65.2226ZM138.95 54.4042C143.75 53.0612 145.59 49.5545 151.07 49.5545C146.784 50.2923 144.38 53.0197 141.047 55.0342C142.349 55.4984 143.633 56.1368 145.996 57.3968C148.276 58.6155 151.517 58.6486 152.57 58.6238C152.081 59.0465 148.326 59.4362 146.344 58.6403C145.291 58.2176 144.388 57.8196 143.501 57.4715C144.181 58.6818 145.391 59.9253 145.631 61.2683C145.731 61.8154 145.988 62.5366 146.56 62.8434C148.168 63.7138 149.42 65.2226 149.776 66.3334C148.21 64.5677 145.565 63.7221 145.142 63.1086C144.479 62.1553 144.396 61.0693 143.733 59.8092C143.435 59.2372 142.763 58.3916 142.083 57.629C140.981 56.3938 140.483 56.4767 138.809 56.0124C136.935 55.4984 134.523 54.9016 132.6 54.9264C130.121 54.9596 129.06 55.9958 126.987 56.3606C126.001 56.5347 125.313 57.3305 124.674 57.6538C123.928 58.0435 123.68 58.7315 123.331 59.718C123.025 60.5885 122.477 61.3926 122.428 63.0257C122.32 66.5987 122.618 69.409 123.489 72.8659C124.384 76.4058 126.365 76.7291 127.369 77.5498C129.599 79.3653 131.364 79.8295 133.744 80.1114C135.368 80.3103 136.413 80.4181 138.079 80.3186C138.759 80.2772 140.724 80.0368 141.345 80.1694C142.44 80.3932 143.037 81.2222 144.753 82.0761C143.202 82.1922 142.116 81.33 141.52 81.2803C139.754 81.1227 138.958 81.3549 138.452 81.5041C138.303 81.5455 138.187 81.6533 138.046 81.703C139.107 82.2253 140.259 83.0958 141.238 83.3362C139.745 83.3362 137.64 82.3662 136.04 81.9435C135.435 81.9186 134.772 81.8606 134.001 81.8523C133.528 81.844 132.367 82.1341 131.812 82.0346C130.494 81.8025 127.601 81.4461 126.307 81.1393C126.357 81.902 128.579 83.7092 129.632 84.2066C129.905 84.2398 130.278 84.447 130.461 84.4553C131.472 84.4968 133.611 83.7838 134.655 83.8087C137.399 83.875 138.519 85.3092 140.351 85.5247C139.082 85.8978 137.532 84.7123 135.451 84.6294C134.365 84.588 133.777 85.1102 132.981 85.1683C133.569 85.4999 134.133 85.9061 134.481 86.3537C134.755 86.7185 134.813 87.9951 134.597 88.7661C134.423 86.9838 132.79 86.1548 132.359 86.105C131.431 85.9972 129.259 85.9475 128.546 85.7403C126.788 85.2429 125.114 82.8222 123.389 82.8802C123.481 83.4108 123.837 84.132 124.699 84.4885C125.711 84.9113 125.984 87.5806 127.684 88.3765C129.342 89.1474 128.844 90.4407 128.745 91.3277C128.322 89.9516 127.907 89.5868 126.556 89.0563C125.255 88.5423 124.964 86.7433 123.796 86.1879C123.182 85.8978 122.046 85.6822 121.574 85.276C121.408 85.1351 121.242 85.0107 121.085 84.903C121.002 86.619 122.502 87.1164 123.207 88.2853C123.298 88.4345 123.555 88.6998 123.688 88.907C123.978 89.3796 123.613 90.1091 123.995 90.5153C124.31 90.8552 125.354 92.0572 125.686 92.1401C124.948 91.9577 123.688 91.2697 123.124 90.8054C122.685 90.449 123.049 89.9847 122.776 89.5371C122.502 89.0894 121.557 88.7744 121.018 88.3516C120.803 89.0563 120.422 90.1754 120.496 90.6231C120.645 91.5349 120.413 92.107 120.795 92.7784C119.816 92.3308 119.634 90.5567 119.593 90.051C119.576 89.8189 119.651 88.3184 119.634 88.1029C119.518 86.9009 119.319 86.619 118.996 86.1299C118.672 86.6107 118.482 86.9009 118.366 88.1029C118.349 88.3184 118.415 89.8189 118.407 90.051C118.374 90.5567 118.183 92.3308 117.205 92.7784C117.586 92.1152 117.346 91.5432 117.503 90.6231C117.578 90.1754 117.188 89.0563 116.981 88.3516C116.442 88.7744 115.497 89.0894 115.224 89.5371C114.958 89.9764 115.315 90.4407 114.876 90.8054C114.312 91.2697 113.043 91.9577 112.314 92.1401C112.646 92.0572 113.69 90.8552 114.005 90.5153C114.386 90.1008 114.03 89.3796 114.312 88.907C114.436 88.6998 114.701 88.4345 114.793 88.2853C115.497 87.1164 116.998 86.619 116.915 84.903C116.757 85.0107 116.592 85.1351 116.426 85.276C115.945 85.6822 114.818 85.8978 114.204 86.1879C113.035 86.7433 112.745 88.5506 111.444 89.0563C110.092 89.5868 109.678 89.9433 109.255 91.3277C109.139 90.4821 108.642 89.1889 110.3 88.4179C111.999 87.6221 112.273 84.9527 113.284 84.5299C114.146 84.1735 114.494 83.4522 114.594 82.9217C112.869 82.8636 111.195 85.2843 109.437 85.7817C108.716 85.989 106.544 86.0387 105.624 86.1465C105.193 86.1962 103.56 87.0252 103.386 88.8076C103.17 88.0283 103.228 86.7516 103.502 86.3952C103.85 85.9392 104.405 85.5413 105.002 85.2097C104.206 85.1434 103.618 84.6211 102.532 84.6709C100.451 84.7538 98.9008 85.9392 97.6324 85.5662C99.4645 85.3506 100.584 83.9165 103.328 83.8501C104.372 83.8253 106.511 84.5382 107.522 84.4968C107.705 84.4885 108.078 84.2812 108.351 84.2481C109.396 83.7424 111.626 81.9435 111.676 81.1808C110.382 81.4875 107.489 81.844 106.171 82.0761C105.616 82.1756 104.447 81.8854 103.983 81.8937C103.22 81.902 102.548 81.96 101.943 81.9849C100.343 82.4077 98.2376 83.3776 96.7454 83.3776C97.7236 83.1289 98.8759 82.2668 99.937 81.7445C99.7961 81.6865 99.68 81.587 99.5308 81.5455C99.0251 81.3963 98.2293 81.1642 96.4635 81.3217C95.8667 81.3714 94.7807 82.2336 93.2304 82.1175C94.9465 81.272 95.5351 80.443 96.6376 80.2108C97.2677 80.0782 99.2241 80.3186 99.9039 80.3601C101.57 80.4595 102.615 80.3518 104.24 80.1528C106.619 79.871 108.385 79.3984 110.615 77.5912C111.626 76.7705 113.607 76.4389 114.494 72.9074C115.365 69.4505 115.663 66.6402 115.564 63.0672C115.514 61.4258 114.967 60.6216 114.66 59.7595C114.312 58.773 114.063 58.0766 113.317 57.6953C112.679 57.3637 111.991 56.5761 111.004 56.402C108.94 56.0373 107.871 55.001 105.392 54.9679C103.477 54.943 101.064 55.5399 99.1826 56.0539C97.5081 56.5181 97.0107 56.4352 95.9081 57.6704C95.2283 58.4331 94.5651 59.287 94.2584 59.8507C93.5869 61.1108 93.5123 62.1967 92.8491 63.1501C92.4263 63.7635 89.7818 64.6091 88.215 66.3749C88.5715 65.2557 89.8233 63.747 91.4315 62.8848C92.0035 62.5781 92.2605 61.8568 92.36 61.3097C92.5921 59.9667 93.8107 58.715 94.4905 57.5129C93.6035 57.8694 92.6916 58.2673 91.6471 58.6818C89.6658 59.4776 85.9104 59.088 85.4213 58.6652C86.4741 58.6901 89.7155 58.6569 91.9952 57.4383C94.3579 56.1782 95.6511 55.5399 96.9444 55.0757C93.6118 53.0612 91.216 50.3255 86.9218 49.596C92.4014 49.596 94.2335 53.0943 99.0417 54.4456C101.305 53.9731 103.344 52.8954 105.624 52.8539C105.79 52.8539 108.003 53.2601 107.481 51.8509C106.403 48.9245 103.419 45.7577 101.421 45.6748C99.307 45.5919 98.3536 45.2437 96.3641 44.1826C93.8439 42.8314 93.8273 40.7672 90.7517 38.3299C95.5433 40.2615 93.3382 42.6739 99.2573 43.9671C100.078 44.1495 102.78 43.8676 104.555 44.5888C106.312 45.2935 110.556 50.7068 111.982 52.2239C113.085 53.4011 115.729 53.741 116.136 53.2767C117.114 52.141 117.371 44.8127 116.641 43.42C115.157 40.5765 113.674 40.1371 110.159 38.7859C108.26 38.0563 107.464 35.9092 107.025 35.5528C105.632 34.417 104.115 34.5911 102.499 34.2678C99.4645 33.6544 98.9008 32.1373 96.7786 32.1373C99.564 31.7642 101.645 33.7373 104.936 33.7373C105.367 33.7373 106.038 33.9031 106.246 33.7953C106.702 33.5466 106.287 32.8254 105.773 32.3114C103.858 30.3964 104.538 29.2441 103.477 27.0141C104.986 28.8793 104.596 29.2358 105.781 30.9601C106.801 32.444 107.29 31.6565 107.464 33.0906C107.68 34.8979 109.214 37.1942 110.755 37.5755C113.458 38.247 114.105 38.5206 115.729 39.2169C116.766 39.6563 117.636 39.9547 117.636 38.6532C117.636 37.6335 118.117 35.959 117.819 34.7569C117.562 33.729 116.326 32.3943 115.721 31.3497C114.784 29.7166 114.677 29.0534 114.022 27.7768C113.334 26.4255 110.009 26.2348 110.101 23.0017C110.44 24.0877 110.963 24.6929 111.51 25.0577C111.725 25.2069 112.737 25.6628 113.549 25.9778C114.519 26.3592 114.693 26.467 115.207 25.5136C115.589 24.8007 115.804 24.038 116.583 23.6401C116.981 23.4411 117.338 23.3582 117.62 23.4494C116.5 23.8971 116.268 24.925 115.912 25.7291C115.622 26.3923 115.398 27.3706 115.53 28.1084C115.663 28.8462 116.094 29.6503 116.509 30.2803C116.766 30.67 117.122 30.985 117.495 31.2751C118.158 31.7725 118.424 32.1456 119.004 32.386C119.593 32.1539 119.85 31.7808 120.521 31.2751C120.902 30.9933 121.251 30.6783 121.508 30.2803C121.922 29.6586 122.345 28.8462 122.486 28.1084C122.618 27.3623 122.395 26.3923 122.104 25.7291C121.756 24.9333 121.516 23.8971 120.405 23.4494C120.687 23.3582 121.035 23.4411 121.441 23.6401C122.229 24.038 122.436 24.8007 122.817 25.5136C123.331 26.467 123.505 26.3592 124.475 25.9778C125.288 25.6628 126.299 25.2069 126.515 25.0577C127.054 24.6929 127.576 24.0877 127.924 23.0017C128.015 26.2348 124.691 26.4255 124.003 27.7768C123.348 29.0534 123.24 29.7166 122.303 31.3497C121.707 32.3943 120.463 33.729 120.206 34.7569C119.908 35.959 120.388 37.6253 120.388 38.6532C120.388 39.9547 121.259 39.6563 122.295 39.2169C123.92 38.5206 124.567 38.247 127.269 37.5755C128.811 37.1942 130.345 34.8896 130.56 33.0906C130.734 31.6565 131.223 32.444 132.243 30.9601C133.42 29.2358 133.039 28.8793 134.548 27.0141C133.487 29.2441 134.166 30.3964 132.251 32.3114C131.737 32.8254 131.323 33.5383 131.779 33.7953C131.986 33.9114 132.658 33.7373 133.089 33.7373C136.38 33.7373 138.461 31.7642 141.246 32.1373C139.124 32.1373 138.56 33.6626 135.526 34.2678C133.909 34.5911 132.392 34.417 131 35.5528C130.56 35.9092 129.764 38.0563 127.858 38.7859C124.343 40.1371 122.859 40.5765 121.375 43.42C120.645 44.8127 120.902 52.1493 121.881 53.2767C122.279 53.741 124.931 53.4011 126.034 52.2239C127.46 50.7068 131.713 45.2935 133.462 44.5888C135.236 43.8759 137.938 44.1495 138.751 43.9671C144.67 42.6739 142.465 40.2615 147.256 38.3299C144.181 40.7589 144.164 42.8314 141.644 44.1826C139.654 45.252 138.693 45.5919 136.587 45.6748C134.589 45.7494 131.605 48.9245 130.527 51.8509C130.005 53.2684 132.218 52.8539 132.384 52.8539C134.655 52.8539 136.686 53.9316 138.95 54.4042ZM110.905 31.9881C111.278 31.5902 111.792 31.814 112.289 32.1373C112.869 32.5186 113.325 32.958 113.881 33.0575C114.635 33.1984 115.298 32.8585 115.895 32.2699C115.24 29.6586 111.543 29.841 110.905 31.9881ZM96.505 63.2413C96.878 62.8434 96.6293 62.3377 96.2729 61.8651C95.8584 61.3097 95.3941 60.8869 95.2532 60.3315C95.0708 59.5854 95.3693 58.9056 95.9164 58.2673C98.5692 58.773 98.6106 62.4786 96.505 63.2413ZM91.0502 61.8817C90.8678 61.5584 91.0999 61.3014 91.3901 61.0776C91.73 60.8206 92.0781 60.6548 92.2439 60.3398C92.4595 59.917 92.3683 59.4362 92.1113 58.9222C90.3704 58.6818 89.8316 60.9615 91.0502 61.8817ZM91.7051 75.8752C91.9538 75.3446 91.5724 74.9633 91.0999 74.6483C90.5362 74.2752 89.9725 74.0514 89.6906 73.5789C89.3093 72.9323 89.4088 72.1696 89.7652 71.3406C92.4595 70.7852 93.5289 74.3167 91.7051 75.8752ZM113.209 19.8018C112.712 19.9262 112.646 20.4567 112.687 21.0122C112.728 21.6671 112.886 22.2391 112.704 22.753C112.463 23.4411 111.875 23.8225 111.112 24.0463C109.272 22.2805 111.145 19.321 113.209 19.8018ZM85.4213 55.2332C85.8938 55.142 86.1508 55.5648 86.3332 56.0539C86.557 56.6342 86.6482 57.1813 87.0047 57.5461C87.4772 58.0352 88.1238 58.1347 88.8616 58.0269C89.7487 55.8052 86.9964 54.0228 85.4213 55.2332ZM98.4034 25.5882C98.8096 25.3229 99.2075 25.6297 99.5557 26.011C99.9785 26.467 100.269 26.9395 100.725 27.1384C101.346 27.4203 101.985 27.2711 102.623 26.8897C102.623 24.5105 99.4065 23.8805 98.4034 25.5882ZM84.3767 66.6899C84.4679 66.2257 84.9488 66.1428 85.4627 66.1511C86.0679 66.1593 86.6068 66.2754 87.071 66.0847C87.6927 65.8277 88.0243 65.2723 88.1901 64.5594C86.4824 62.9428 83.8462 64.8081 84.3767 66.6899ZM99.6303 47.0841C99.8873 47.4903 100.376 47.3908 100.857 47.1919C101.429 46.9598 101.893 46.653 102.399 46.6613C103.079 46.6696 103.593 47.0758 104.016 47.6893C103.004 49.8364 99.821 49.0571 99.6303 47.0841ZM99.1412 38.7195C99.05 38.1392 99.5806 37.8491 100.186 37.6418C100.899 37.4014 101.57 37.3102 102.026 36.8957C102.648 36.3403 102.797 35.5611 102.698 34.6574C100.037 33.4886 97.7402 36.7548 99.1412 38.7195ZM85.3301 43.2873C85.4876 42.9972 85.8275 43.0469 86.1674 43.163C86.5653 43.2956 86.9052 43.4863 87.2451 43.4614C87.7176 43.4282 88.0492 43.1215 88.3062 42.6821C87.5186 41.2397 85.3715 41.9195 85.3301 43.2873ZM93.3133 46.7194C93.6449 47.0344 93.4626 47.4655 93.189 47.88C92.8657 48.3691 92.5009 48.7504 92.418 49.2229C92.302 49.8613 92.5921 50.4084 93.0895 50.9141C95.2946 50.3587 95.1206 47.2499 93.3133 46.7194ZM118.548 19.263C117.562 19.9096 115.953 20.523 115.912 21.9158C115.904 22.3966 116.194 22.9354 116.343 23.0183C116.525 23.1261 117.147 23.0764 117.562 22.8111C118.689 22.0981 118.457 20.407 118.548 19.263ZM103.212 38.4211C104.488 38.9102 106.138 40.0045 107.473 39.1009C107.929 38.7859 108.235 38.1558 108.219 37.9569C108.194 37.7082 107.738 37.1693 107.207 36.9621C105.773 36.3901 104.339 37.733 103.212 38.4211ZM88.9114 43.0801C90.0637 42.3505 91.4647 40.9495 92.9486 41.5713C93.4543 41.7868 93.8854 42.3423 93.9019 42.5412C93.9268 42.7899 93.5869 43.4117 93.1144 43.7184C91.8294 44.564 90.1549 43.5277 88.9114 43.0801ZM101.976 29.6586C101.786 30.6368 101.197 31.9632 102.018 32.8088C102.3 33.0989 102.797 33.2399 102.938 33.2067C103.112 33.1653 103.444 32.759 103.535 32.3611C103.759 31.2503 102.606 30.3881 101.976 29.6586ZM83.3488 46.4541C84.4596 46.6945 86.1176 46.6862 86.6316 47.9297C86.8057 48.3525 86.7311 48.9328 86.6233 49.0654C86.499 49.2312 85.927 49.397 85.4627 49.2975C84.2109 49.0405 83.8213 47.4489 83.3488 46.4541ZM101.106 40.0459C101.686 40.8252 102.756 41.7454 102.391 42.8314C102.267 43.2044 101.893 43.536 101.753 43.5609C101.578 43.594 101.114 43.3785 100.874 43.0635C100.211 42.1847 100.857 40.9495 101.106 40.0459ZM89.9891 33.3145C89.7487 34.4834 89.0357 36.0667 90.0056 37.0781C90.3372 37.4263 90.9258 37.6004 91.0916 37.5589C91.2989 37.5009 91.7051 37.0284 91.8129 36.5476C92.103 35.2377 90.7435 34.1932 89.9891 33.3145ZM113.408 45.6665C112.098 45.6665 110.241 45.2686 109.363 46.5287C109.064 46.9598 109.006 47.6313 109.089 47.8053C109.197 48.0126 109.794 48.3442 110.341 48.3442C111.825 48.3691 112.637 46.6613 113.408 45.6665ZM108.907 28.7135C110.109 28.0835 111.626 26.8068 113.043 27.5529C113.533 27.8099 113.906 28.3985 113.914 28.5975C113.922 28.8379 113.524 29.4348 113.035 29.7C111.676 30.4296 110.101 29.2607 108.907 28.7135ZM87.6596 44.3484C87.3446 45.6748 86.4741 47.4572 87.5435 48.6592C87.9083 49.0737 88.5798 49.2893 88.7704 49.2478C89.0108 49.1898 89.4917 48.6675 89.6326 48.1204C90.0056 46.6199 88.4803 45.3764 87.6596 44.3484ZM109.951 43.4282C110.565 42.334 111.104 40.5931 112.579 40.4604C113.085 40.4107 113.674 40.6843 113.773 40.8335C113.897 41.0159 113.889 41.6791 113.64 42.1267C112.952 43.3702 111.145 43.2541 109.951 43.4282ZM97.3091 36.6553C96.3972 37.9071 94.7061 39.4076 95.3112 41.1402C95.5185 41.7371 96.1236 42.2594 96.3475 42.3008C96.621 42.3505 97.3589 42.0024 97.7402 41.4884C98.793 40.0708 97.7319 38.0978 97.3091 36.6553ZM96.6791 47.1504C97.5827 47.2168 98.851 47.5981 99.5225 46.7691C99.7547 46.4872 99.8293 46.023 99.7795 45.8986C99.7215 45.7494 99.3236 45.4842 98.9422 45.451C97.9226 45.3681 97.2677 46.5038 96.6791 47.1504ZM113.756 21.5842C113.383 22.6038 112.53 23.9302 113.267 24.983C113.516 25.3395 114.03 25.5799 114.187 25.5633C114.378 25.5468 114.809 25.1654 114.967 24.7509C115.406 23.5986 114.312 22.4712 113.756 21.5842ZM86.814 53.8902C88.1984 53.9897 90.13 54.5783 91.1662 53.3099C91.5227 52.8705 91.6388 52.1659 91.5642 51.9752C91.473 51.7431 90.8595 51.3452 90.2875 51.2954C88.7207 51.1545 87.7176 52.8871 86.814 53.8902ZM85.985 62.4869C87.0461 63.1169 88.3476 64.3521 89.674 63.747C90.13 63.5397 90.503 63.0257 90.5113 62.8434C90.5279 62.6195 90.2046 62.0641 89.7652 61.7988C88.5798 61.0776 87.0959 62.0558 85.985 62.4869ZM110.382 31.6067C110.316 32.6596 110.556 34.1849 109.495 34.8315C109.131 35.0554 108.583 35.0637 108.451 34.989C108.285 34.8979 108.053 34.3922 108.069 33.9611C108.128 32.7673 109.537 32.187 110.382 31.6067ZM95.9081 65.5293C94.9962 64.9988 93.5289 64.5262 93.4294 63.291C93.3962 62.8599 93.6284 62.3708 93.761 62.2879C93.9185 62.1802 94.4739 62.1967 94.8553 62.4123C95.8915 62.9926 95.7672 64.5179 95.9081 65.5293ZM107.647 25.7126C108.559 25.4722 109.786 24.8421 110.639 25.5716C110.93 25.8203 111.095 26.2846 111.07 26.4172C111.037 26.583 110.673 26.9312 110.3 27.0307C109.263 27.3125 108.368 26.2763 107.647 25.7126ZM100.161 28.0752C101.073 27.8348 102.3 27.2048 103.154 27.9343C103.444 28.183 103.609 28.6472 103.585 28.7799C103.551 28.9457 103.187 29.2938 102.814 29.3933C101.777 29.6752 100.89 28.6306 100.161 28.0752ZM85.2804 70.0888C85.471 68.9945 85.4047 67.378 86.5985 66.8308C87.013 66.6402 87.5767 66.6899 87.7093 66.7894C87.8668 66.9054 88.0575 67.4609 87.9829 67.9085C87.7756 69.152 86.2337 69.5914 85.2804 70.0888ZM91.7963 54.172C92.4512 54.3793 93.3133 54.8767 93.9517 54.3876C94.1755 54.2135 94.3081 53.8902 94.2916 53.7907C94.275 53.6664 94.0263 53.4094 93.7527 53.3182C93.0232 53.0778 92.3351 53.799 91.7963 54.172ZM86.3995 73.3302C87.5186 72.6255 89.3342 71.9623 89.4005 70.4038C89.4171 69.865 89.1103 69.2598 88.9362 69.1603C88.7373 69.036 88.0409 69.0774 87.5767 69.3676C86.3083 70.1551 86.5239 72.0618 86.3995 73.3302ZM114.793 45.3598C114.362 44.4811 113.466 43.3619 114.03 42.3505C114.221 42.0024 114.66 41.7454 114.801 41.7454C114.975 41.7454 115.398 42.0438 115.58 42.4003C116.086 43.3951 115.215 44.5142 114.793 45.3598ZM106.038 21.5013C107.166 21.609 108.799 21.4184 109.454 22.5872C109.678 22.9852 109.669 23.5738 109.587 23.7147C109.479 23.8888 108.932 24.1209 108.467 24.0794C107.182 23.9634 106.619 22.4297 106.038 21.5013ZM82.6773 62.7439C83.2162 61.4423 83.5809 59.4279 85.1975 59.0797C85.7529 58.9554 86.4492 59.1792 86.5819 59.3284C86.7477 59.5191 86.8306 60.2569 86.615 60.7957C86.0265 62.2713 83.9954 62.3874 82.6773 62.7439ZM103.054 39.706C103.079 41.049 102.689 42.964 103.999 43.8427C104.455 44.1412 105.143 44.1909 105.317 44.0997C105.533 43.992 105.856 43.3702 105.856 42.8148C105.856 41.2977 104.09 40.4853 103.054 39.706ZM98.2542 27.412C99.2904 28.3239 101.056 29.2938 100.874 30.9104C100.807 31.4658 100.385 32.0378 100.202 32.1207C99.9702 32.2119 99.2655 32.0627 98.8262 31.6896C97.6407 30.67 98.1713 28.7384 98.2542 27.412ZM102.068 58.831C102.49 57.7119 102.747 55.9875 104.123 55.6477C104.596 55.5316 105.193 55.7057 105.309 55.83C105.458 55.9876 105.541 56.6093 105.367 57.0735C104.894 58.3419 103.178 58.4911 102.068 58.831ZM90.9839 79.415C90.2958 78.6109 89.0523 77.6741 89.3756 76.4555C89.4834 76.041 89.873 75.6514 90.0222 75.6099C90.2046 75.5602 90.7269 75.7591 91.017 76.0907C91.8129 77.0026 91.1911 78.4119 90.9839 79.415ZM98.6687 49.1483C98.6935 50.5245 98.2873 52.5058 99.6469 53.4094C100.111 53.7244 100.824 53.7658 101.006 53.6746C101.23 53.5586 101.57 52.9203 101.562 52.3483C101.554 50.7897 99.7381 49.9524 98.6687 49.1483ZM110.764 39.7392C110.59 40.7174 110.134 41.1153 109.57 41.2977C108.418 41.6708 107.265 40.8832 106.246 41.2646C107.746 38.1807 109.777 38.5372 110.764 39.7392ZM93.761 39.1921C94.6978 38.8439 95.0045 38.3216 95.0791 37.7413C95.2449 36.5393 94.2584 35.5528 94.4574 34.4751C91.6885 36.4895 92.4014 38.4294 93.761 39.1921ZM104.007 26.8151C104.986 26.4752 105.326 25.9447 105.417 25.3395C105.616 24.096 104.621 23.0432 104.845 21.924C101.918 23.9634 102.615 25.9944 104.007 26.8151ZM96.9361 57.7699C97.1848 58.3668 97.5247 58.5574 97.906 58.5906C98.6852 58.6735 99.307 58.0103 100.012 58.1181C98.6355 56.3772 97.4003 56.8746 96.9361 57.7699ZM92.3434 76.9529C92.8988 76.9612 93.1558 77.1767 93.3051 77.4669C93.6118 78.0637 93.2802 78.7601 93.5786 79.2824C91.7548 78.7435 91.7714 77.5995 92.3434 76.9529ZM95.9413 44.1329C96.0159 45.0033 95.7257 45.4427 95.2864 45.7246C94.3993 46.3049 93.247 45.8986 92.4678 46.4624C93.0315 43.5111 94.8387 43.3453 95.9413 44.1329ZM105.997 55.714C105.699 56.2445 105.757 56.6093 105.947 56.916C106.345 57.5461 107.191 57.6207 107.522 58.201C108.02 56.1699 106.925 55.5399 105.997 55.714ZM91.7963 68.9531C91.4978 69.4836 91.5559 69.8484 91.7465 70.1551C92.1445 70.7852 92.99 70.8598 93.3216 71.4401C93.8273 69.4007 92.733 68.7707 91.7963 68.9531ZM106.213 30.0814C107.199 29.7995 107.556 29.2938 107.688 28.697C107.953 27.4783 107.025 26.3841 107.315 25.2981C104.306 27.1467 104.886 29.1944 106.213 30.0814ZM96.7951 30.7114C97.4252 30.2969 97.5744 29.8658 97.5329 29.4265C97.4583 28.5146 96.5713 27.9426 96.5381 27.1219C94.8221 29.0617 95.6677 30.3798 96.7951 30.7114ZM107.481 31.7477C108.045 31.9798 108.401 31.872 108.683 31.6399C109.255 31.1674 109.222 30.3135 109.761 29.9073C107.672 29.6669 107.191 30.8358 107.481 31.7477ZM114.718 21.9987C115.315 21.8577 115.539 21.5593 115.63 21.2111C115.812 20.4899 115.29 19.8184 115.481 19.1801C113.657 20.208 113.947 21.4349 114.718 21.9987ZM92.5175 63.8216C91.8792 64.2029 91.73 64.6257 91.7548 65.0651C91.8046 65.9687 92.6584 66.5573 92.6667 67.3697C94.3993 65.5044 93.6118 64.1863 92.5175 63.8216ZM104.919 48.5514C105.616 49.1483 105.707 49.6955 105.591 50.2177C105.35 51.3037 104.182 51.8426 104.007 52.8291C102.275 50.2094 103.51 48.7753 104.919 48.5514ZM87.6015 50.3587C87.6927 51.4446 87.328 51.9918 86.7891 52.34C85.6783 53.0612 84.2441 52.5555 83.2825 53.2601C83.9788 49.5877 86.2171 49.3804 87.6015 50.3587ZM110.573 49.1483C110.838 49.8364 111.22 50.0602 111.651 50.11C112.53 50.226 113.259 49.4965 114.047 49.6291C112.538 47.6064 111.12 48.1452 110.573 49.1483ZM89.8647 59.4693C89.301 59.2041 88.9279 59.2952 88.6295 59.5191C88.016 59.975 88.0078 60.8538 87.444 61.2351C89.5663 61.5833 90.1217 60.4144 89.8647 59.4693ZM88.0492 73.3468C87.4772 73.8027 87.386 74.2338 87.4606 74.6566C87.6181 75.527 88.5217 75.9913 88.6295 76.7788C90.0968 74.756 89.1601 73.5706 88.0492 73.3468ZM86.043 57.6787C85.8772 56.8 85.4627 56.4435 84.9653 56.286C83.9291 55.9544 82.8928 56.6673 81.9727 56.3357C83.3322 59.1046 85.1643 58.7647 86.043 57.6787ZM98.3371 43.1464C98.9754 43.1961 99.2987 42.9806 99.4977 42.6573C99.9205 42.0024 99.6137 41.1568 100.02 40.5848C97.8562 41.0159 97.7485 42.3423 98.3371 43.1464ZM91.0419 49.9607C91.6222 49.6789 91.788 49.3224 91.8046 48.9411C91.8294 48.1535 91.1331 47.5815 91.1911 46.8769C89.5331 48.3525 90.1217 49.5545 91.0419 49.9607ZM86.4575 46.3214C85.728 46.4541 85.3384 46.2385 85.0648 45.8986C84.5094 45.194 84.7581 44.1909 84.2275 43.5775C86.756 43.8179 87.0295 45.3266 86.4575 46.3214ZM116.55 33.3311C116.044 33.0409 115.688 33.0906 115.398 33.2813C114.793 33.6627 114.718 34.4751 114.154 34.7901C116.111 35.2792 116.716 34.2264 116.55 33.3311ZM105.342 35.3538C104.778 35.0305 104.38 35.0885 104.057 35.2958C103.386 35.7186 103.294 36.6305 102.673 36.9786C104.845 37.5258 105.524 36.3569 105.342 35.3538ZM89.7487 37.7662C89.3756 38.189 89.044 38.247 88.7207 38.1724C88.0575 38.0149 87.7342 37.3019 87.129 37.1859C88.7456 36.1414 89.6243 36.904 89.7487 37.7662ZM99.1246 33.2482C98.4697 32.8668 98.0055 32.9414 97.6324 33.1818C96.8449 33.6709 96.7454 34.7321 96.0159 35.1383C98.5526 35.7766 99.3484 34.4087 99.1246 33.2482ZM93.3797 56.1948C93.2139 55.3161 92.7994 54.9596 92.302 54.8021C91.2657 54.4705 90.2295 55.1834 89.3093 54.8435C90.6688 57.6124 92.5009 57.2808 93.3797 56.1948ZM96.5216 32.3943C95.9827 33.5632 95.2781 33.9114 94.5154 33.9528C92.9486 34.044 91.7714 32.6761 90.3704 32.8171C93.2553 29.4596 95.6843 30.5705 96.5216 32.3943ZM91.2906 40.0293C90.7683 39.0014 90.13 38.7112 89.4502 38.6947C88.0492 38.6615 87.0378 39.9216 85.7695 39.8387C88.4554 42.7568 90.5942 41.6873 91.2906 40.0293ZM113.466 37.7662C113.997 38.1227 114.378 38.0895 114.71 37.9154C115.39 37.5506 115.539 36.6802 116.169 36.3901C114.096 35.6937 113.35 36.7797 113.466 37.7662ZM95.3029 52.3731C96.3806 52.3731 96.8946 51.9586 97.2013 51.3949C97.8231 50.2343 97.1931 48.8582 97.8065 47.8302C94.2169 48.8416 94.2087 51.0882 95.3029 52.3731ZM112.505 37.4677C111.502 37.1859 111.128 36.6719 110.996 36.0667C110.722 34.8232 111.659 33.7041 111.361 32.6015C114.428 34.4751 113.856 36.5559 112.505 37.4677ZM119.601 26.0607C119.899 27.0307 118.134 29.8327 120.737 30.4793C120.952 30.4047 121.342 29.8658 121.408 29.3519C121.607 27.9343 120.471 26.9229 119.601 26.0607ZM118.391 26.0607C118.092 27.0307 119.858 29.8327 117.255 30.4793C117.039 30.4047 116.65 29.8658 116.583 29.3519C116.384 27.9343 117.528 26.9229 118.391 26.0607ZM121.383 25.8452C120.911 26.0939 120.596 26.0276 120.339 25.8535C119.808 25.4887 119.767 24.7509 119.269 24.4442C121.052 24.0629 121.566 25.0411 121.383 25.8452ZM116.616 25.8452C117.089 26.0939 117.404 26.0276 117.661 25.8535C118.192 25.4887 118.233 24.7509 118.73 24.4442C116.948 24.0629 116.434 25.0411 116.616 25.8452ZM90.3041 65.2226C91.274 65.6454 91.5724 66.2091 91.6222 66.8308C91.73 68.1158 90.6357 69.1106 90.7849 70.2629C87.958 67.9666 88.8202 65.9521 90.3041 65.2226Z" fill="white"/>
</svg>
